<svg width="31" height="30" viewBox="0 0 31 30" fill="none" xmlns="http://www.w3.org/2000/svg">
<circle cx="15.9688" cy="15" r="15" fill="#F50E30"/>
<g clip-path="url(#clip0_47_7468)">
<path d="M24.2672 9.75357C23.6174 8.9812 22.4178 8.66614 20.1268 8.66614H11.8105C9.46709 8.66614 8.24716 9.00152 7.59985 9.82383C6.96875 10.6256 6.96875 11.8069 6.96875 13.4419V16.5582C6.96875 19.7256 7.71755 21.3338 11.8105 21.3338H20.1269C22.1136 21.3338 23.2145 21.0558 23.9267 20.3742C24.6571 19.6752 24.9688 18.534 24.9688 16.5582V13.4419C24.9688 11.7177 24.9199 10.5294 24.2672 9.75357ZM18.5248 15.4302L14.7484 17.4039C14.664 17.448 14.5717 17.4699 14.4795 17.4699C14.3751 17.4699 14.2709 17.4418 14.1786 17.386C14.0049 17.2807 13.8988 17.0924 13.8988 16.8893V12.9546C13.8988 12.7518 14.0046 12.5637 14.178 12.4584C14.3514 12.3531 14.5671 12.3459 14.7471 12.4393L18.5235 14.4003C18.7156 14.5001 18.8363 14.6984 18.8366 14.9148C18.8368 15.1314 18.7167 15.33 18.5248 15.4302Z" fill="white"/>
</g>
<defs>
<clipPath id="clip0_47_7468">
<rect width="18" height="18" fill="white" transform="translate(6.96875 6)"/>
</clipPath>
</defs>
</svg>
